{"title":"Frontera.2014.BRRip.480p.x264.AAC-VYTO [P2PDL]","uid":11282004,"size":375136718,"categoryP":"video","categoryS":"movies","magnet":"?xt=urn:btih:84d22eb4583fb6c79f61524aac0f65c02314b37d&amp;dn=Frontera.2014.BRRip.480p.x264.AAC-VYTO+%5BP2PDL%5D&amp;tr=udp%3A%2F%2Ftracker.openbittorrent.com%3A80&amp;tr=udp%3A%2F%2Fopen.demonii.com%3A1337&amp;tr=udp%3A%2F%2Ftracker.coppersurfer.tk%3A6969&amp;tr=udp%3A%2F%2Fexodus.desync.com%3A6969","seeders":0,"leechers":1,"uploader":"ValidusVyto","files":-1,"time":1414229199,"description":"Frontera.2014.BRRip.480p.x264.AAC-VYTO\n\n\nGenre: Drama | Western \nIMDb: http://www.imdb.com/title/tt2510028/\n\n\nGeneral\nFormat                         : MPEG-4\nFile size                      : 351 MiB\nDuration                       : 1h 42mn\nOverall bit rate               : 477 Kbps\n\nVideo\nFormat                         : AVC\nBit rate                       : 434 Kbps\nMaximum bit rate               : 2 377 Kbps\nWidth                          : 720 pixels\nHeight                         : 304 pixels\nDisplay aspect ratio           : 2.35:1\nFrame rate mode                : Constant\nFrame rate                     : 23.976 fps\nBit depth                      : 8 bits\nStream size                    : 319 MiB (91%)\nWriting library                : x264 core 142 r2479 dd79a61\n\nAudio\nFormat                         : AAC\nBit rate mode                  : Variable\nBit rate                       : 39.9 Kbps\nChannel count                  : 2 channels\nChannel positions              : Front: L R\nSampling rate                  : 48.0 KHz\nStream size                    : 29.4 MiB (8%)\nLanguage                       : English\n\nSubtitle                       : Yes(English)\n\nSource                         : LIMITED.720p.BluRay.x264-GECKOS\n &lt;a href=&quot;\nhttp://someimage.com/ebw6aRa&quot; rel=&quot;nofollow&quot; target=&quot;_NEW&quot;&gt;\nhttp://someimage.com/ebw6aRa&lt;/a&gt; &lt;a href=&quot;\nhttp://someimage.com/FRGCMdq&quot; rel=&quot;nofollow&quot; target=&quot;_NEW&quot;&gt;\nhttp://someimage.com/FRGCMdq&lt;/a&gt; &lt;a href=&quot;\nhttp://someimage.com/eczXGel&quot; rel=&quot;nofollow&quot; target=&quot;_NEW&quot;&gt;\nhttp://someimage.com/eczXGel&lt;/a&gt; &lt;a href=&quot;\nhttp://someimage.com/bul9N6J&quot; rel=&quot;nofollow&quot; target=&quot;_NEW&quot;&gt;\nhttp://someimage.com/bul9N6J&lt;/a&gt; &lt;a href=&quot;\nhttp://someimage.com/V4hmlJr&quot; rel=&quot;nofollow&quot; target=&quot;_NEW&quot;&gt;\nhttp://someimage.com/V4hmlJr&lt;/a&gt; &lt;a href=&quot;\nhttp://someimage.com/pIWkfVu&quot; rel=&quot;nofollow&quot; target=&quot;_NEW&quot;&gt;\nhttp://someimage.com/pIWkfVu&lt;/a&gt; &lt;a href=&quot;\nhttp://someimage.com/MWCVYwx&quot; rel=&quot;nofollow&quot; target=&quot;_NEW&quot;&gt;\nhttp://someimage.com/MWCVYwx&lt;/a&gt; &lt;a href=&quot;\nhttp://someimage.com/EAbOzYZ&quot; rel=&quot;nofollow&quot; target=&quot;_NEW&quot;&gt;\nhttp://someimage.com/EAbOzYZ&lt;/a&gt; &lt;a href=&quot;\nhttp://someimage.com/41Yshvi&quot; rel=&quot;nofollow&quot; target=&quot;_NEW&quot;&gt;\nhttp://someimage.com/41Yshvi&lt;/a&gt;\n\n----------------------------------------------------------------------------------------------------\n\n\nEncoded using revolutionary 10bit encoding, which enables us to provide you more crispier \nand sharper images at small sizes, just make sure you follow our instructions without a fault.\nRecommend to you to use latest version of VLC player. Install K-Lite Codec Pack or shark007 codecs\nin case of any kind of problem in playback (For non-VLC Media Player users). Alternatively, install\nCore AVC codecs, the fastest decoder that there is coupled with Community Center Codec Pack and play\non Windows Media Player Classic. Check sample to be sure.\nEnjoy!\n\nEncoder Notes: Looking For Early Access To Anything You Can Provide DVDScr, R5, DVDR, BluRay, Direct\nAudio, Music Releases and Seedboxes. We require dedicated servers, so as to do more \nand fast releases of movies.\nIf You Got anything to offer please contact us.\n\nFind us! Support us!","torrent":{"xt":"urn:btih:84d22eb4583fb6c79f61524aac0f65c02314b37d","amp;dn":"Frontera.2014.BRRip.480p.x264.AAC-VYTO+%5BP2PDL%5D","amp;tr":["udp%3A%2F%2Ftracker.openbittorrent.com%3A80","udp%3A%2F%2Fopen.demonii.com%3A1337","udp%3A%2F%2Ftracker.coppersurfer.tk%3A6969","udp%3A%2F%2Fexodus.desync.com%3A6969"],"infoHash":"84d22eb4583fb6c79f61524aac0f65c02314b37d","infoHashBuffer":{"type":"Buffer","data":[132,210,46,180,88,63,182,199,159,97,82,74,172,15,101,192,35,20,179,125]},"announce":[],"urlList":[]}}